<svg version="1.2" xmlns="http://www.w3.org/2000/svg" viewBox="0 0 258 300" width="258" height="300">
	<title>Untitled-1</title>
	<style>
		.s0 { fill: #f7981f } 
	</style>
	<path id="D copy 2" fill-rule="evenodd" class="s0" d="m3 253v-253h60.8q63.7 0 93.4 30.7 29.8 30.5 29.8 95.5 0 65.5-29.9 96.1-29.9 30.7-93.3 30.7zm65.4-224.9h-35.7v196.8h35.7q45.3 0 66.3-23.8 21.1-23.7 21.1-74.9 0-50.8-21.1-74.3-21-23.8-66.3-23.8z"/>
	<path id="D copy 3" fill-rule="evenodd" class="s0" d="m255 47v253h-60.8q-63.7 0-93.4-30.7-29.8-30.5-29.8-95.5 0-65.5 29.9-96.1 29.9-30.7 93.3-30.7zm-65.4 224.9h35.7v-196.8h-35.7q-45.3 0-66.3 23.8-21.1 23.7-21.1 74.9 0 50.8 21.1 74.3 21 23.8 66.3 23.8z"/>
</svg>